<?xml version="1.0" standalone="no"?><!DOCTYPE svg PUBLIC "-//W3C//DTD SVG 1.1//EN" "http://www.w3.org/Graphics/SVG/1.1/DTD/svg11.dtd"><svg t="1666574823240" class="icon" viewBox="0 0 1024 1024" version="1.1" xmlns="http://www.w3.org/2000/svg" p-id="3570" xmlns:xlink="http://www.w3.org/1999/xlink" width="200" height="200"><path d="M437.5 329.8c18.4-7.3 33-21.6 40.8-39.8 7.8-18.2 8.1-38.7 0.7-57l-0.6-1.5c-5.9-44.1-42-78-86.4-81.2-18.6 7.4-33.5 22-41.2 40.5-7.7 18.5-7.6 39.3 0.2 57.8 6 44.2 42.1 78.1 86.5 81.2zM604.3 329.8c44.4-3.1 80.5-37 86.4-81.2l0.6-1.5c7.3-18.4 7.1-38.9-0.7-57a74.39 74.39 0 0 0-40.8-39.8c-44.4 3.1-80.5 37.1-86.4 81.2l-0.7 1.5c-7.3 18.4-7.1 38.9 0.7 57 7.8 18.2 22.5 32.5 40.9 39.8zM277.4 490c40.3-18.9 58.4-66.3 41-107.2-3.2-44.2-41.5-77.5-85.6-74.5-40.3 18.9-58.4 66.3-41 107.2 3.1 44.2 41.4 77.4 85.6 74.5zM776.3 630.7l-6-3c-28.3-18.8-58.5-34.5-90.1-46.9 5.5-45.9-8.7-92-39.1-126.9-30.4-34.9-74.1-55.3-120.3-56.3-46.2 0.9-89.9 21.4-120.3 56.3-30.4 34.9-44.6 81-39.1 126.9-32.3 10.9-62.7 26.7-90.1 46.9-22.8 16.8-37.9 42-41.9 70-4.1 28 3.3 56.4 20.3 79 36.5 45 101.5 54.1 148.9 20.9 35.8-25 78.4-38.5 122.1-38.7 43.5-0.4 86 12.3 122.1 36.5 44.7 36.9 111 30.5 147.8-14.2l1.1-1.4c19.2-21.2 28.4-49.5 25.4-78s-17.6-54.3-40.8-71.1zM518 672c-39.8 0-72-32.2-72-72s32.2-72 72-72 72 32.2 72 72-32.2 72-72 72zM809.1 308.3c-44.2-3-82.5 30.3-85.6 74.5-17.4 40.9 0.7 88.3 41 107.2 44.2 3 82.5-30.3 85.6-74.5 17.4-41-0.7-88.3-41-107.2z" fill="#39B54A" p-id="3571"></path></svg>