<svg width="12" height="12" viewBox="0 0 12 12" fill="none" xmlns="http://www.w3.org/2000/svg">
<path d="M1.43662 6.39743C1.60137 6.56218 1.86849 6.56218 2.03324 6.39743L5.69583 2.73484L5.7008 2.72995C5.86591 2.5701 6.12934 2.57173 6.29245 2.73484L9.95503 6.39743L9.96 6.40232C10.1251 6.56217 10.3885 6.56054 10.5517 6.39743C10.7164 6.23268 10.7164 5.96556 10.5517 5.80081L6.88907 2.13822L6.87415 2.12354C6.37881 1.64401 5.58852 1.6489 5.0992 2.13822L1.43662 5.80081L1.43169 5.80574C1.27188 5.97089 1.27351 6.23433 1.43662 6.39743ZM1.43662 10.1357C1.60137 10.3005 1.86849 10.3005 2.03324 10.1357L5.69583 6.47312L5.7008 6.46823C5.86591 6.30838 6.12934 6.31002 6.29245 6.47312L9.95503 10.1357L9.96 10.1406C10.1251 10.3004 10.3885 10.2988 10.5517 10.1357C10.7164 9.97096 10.7164 9.70384 10.5517 9.53909L6.88907 5.8765L6.87415 5.86182C6.37881 5.38229 5.58852 5.38718 5.0992 5.8765L1.43662 9.53909L1.43169 9.54402C1.27188 9.70918 1.27351 9.97261 1.43662 10.1357Z" fill="#8C8C8C"/>
</svg>
