<svg width="12" height="12" viewBox="0 0 12 12" fill="none" xmlns="http://www.w3.org/2000/svg">
<path d="M1.43662 5.60257C1.60137 5.43782 1.86849 5.43782 2.03324 5.60257L5.69583 9.26516L5.7008 9.27005C5.86591 9.4299 6.12934 9.42827 6.29245 9.26516L9.95503 5.60257L9.96 5.59768C10.1251 5.43783 10.3885 5.43946 10.5517 5.60257C10.7164 5.76732 10.7164 6.03444 10.5517 6.19919L6.88907 9.86178L6.87415 9.87646C6.37881 10.356 5.58852 10.3511 5.0992 9.86178L1.43662 6.19919L1.43169 6.19426C1.27188 6.02911 1.27351 5.76567 1.43662 5.60257ZM1.43662 1.86429C1.60137 1.69953 1.86849 1.69953 2.03324 1.86429L5.69583 5.52688L5.7008 5.53177C5.86591 5.69162 6.12934 5.68998 6.29245 5.52688L9.95503 1.86429L9.96 1.85939C10.1251 1.69955 10.3885 1.70118 10.5517 1.86429C10.7164 2.02904 10.7164 2.29616 10.5517 2.46091L6.88907 6.1235L6.87415 6.13818C6.37881 6.61771 5.58852 6.61282 5.0992 6.1235L1.43662 2.46091L1.43169 2.45598C1.27188 2.29082 1.27351 2.02739 1.43662 1.86429Z" fill="#8C8C8C"/>
</svg>
